<?xml version="1.0" encoding="UTF-8"?>
<svg id="Layer_1" xmlns="http://www.w3.org/2000/svg" version="1.1" viewBox="0 0 841.89 595.28">
  <!-- Generator: Adobe Illustrator 29.6.1, SVG Export Plug-In . SVG Version: 2.1.1 Build 9)  -->
  <defs>
    <style>
      .st0 {
        fill: #010101;
      }

      .st1 {
        fill: #48111c;
      }
    </style>
  </defs>
  <g>
    <path class="st1" d="M141.74,471.93c.08-1.44.13-2.93.1-4.41s-.04-2.99-.04-4.48c0-.42-.02-.84-.06-1.26-.04-.4-.02-.82.06-1.26.13-1.15.5-2.09,1.11-2.82s1.34-1.26,2.2-1.57c.86-.31,1.74-.46,2.68-.42s1.8.27,2.57.71c.8.42,1.44,1.03,1.97,1.8s.8,1.72.8,2.82c0,1.44-.04,2.87-.15,4.25-.1,1.38-.21,2.78-.31,4.18-.15,1.8-.27,3.7-.38,5.75s-.17,4.12-.21,6.24c-.04,2.11-.06,4.21-.06,6.28s0,4.02.06,5.86c.08,1.67.08,3.37,0,5.13-.08,1.36-.59,2.53-1.51,3.52s-2.05,1.55-3.37,1.74c-1.3.21-2.51,0-3.66-.67s-1.97-1.61-2.45-2.85c-.25-.69-.38-1.4-.38-2.18,0-5.84.15-10.92.42-15.19.27-4.29.48-8.01.61-11.17h0Z"/>
    <path class="st1" d="M167.73,467.95c1.53-.33,2.95-.69,4.27-1.07,1.32-.36,2.64-.59,4-.67,2.8-.29,5.11.08,6.9,1.13s3.2,2.51,4.23,4.37c1.03,1.88,1.74,4.04,2.13,6.51s.63,4.9.65,7.37c0,2.45-.08,4.79-.29,7.01s-.42,4.04-.65,5.44c-.08.73-.31,1.42-.67,2.07-.36.67-.82,1.26-1.38,1.8-.56.54-1.19.96-1.88,1.28s-1.4.48-2.07.48c-.65.08-1.28.04-1.93-.13-.65-.17-1.26-.36-1.86-.59-1.82-.65-2.7-1.97-2.62-3.98.13-1.67.25-3.33.36-5,.1-1.67.21-3.33.29-5,0-1.23,0-2.49.04-3.75s.04-2.53.04-3.81c0-.42-.02-.86-.06-1.28-.04-.42-.15-.86-.31-1.28-.21-.54-.52-1-.92-1.34s-.84-.54-1.3-.65c-.46-.08-.92-.04-1.4.17-.46.19-.9.52-1.28.98-1.11,1.36-1.82,2.85-2.16,4.46-.33,1.61-.5,3.22-.5,4.83,0,1.93.06,3.81.17,5.63.1,1.84.17,3.7.17,5.63,0,1.19-.27,2.3-.84,3.33-.21.29-.48.61-.84.9-.33.29-.69.46-1.03.5-1.23.33-2.47.54-3.68.61s-2.45-.13-3.68-.54c-.61-.21-1.09-.54-1.46-1.03-.38-.46-.67-1-.86-1.59s-.31-1.21-.38-1.86-.1-1.23-.1-1.8c.08-3.87.17-7.74.25-11.55.08-3.81.17-7.64.25-11.49.04-.77.13-1.51.25-2.2s.29-1.4.5-2.07c.33-1.23.86-2.26,1.57-3.03.71-.8,1.63-1.32,2.78-1.57,1.19-.21,2.2-.06,3.03.44.84.5,1.55,1.26,2.13,2.24.04.08.1.15.17.17s.06,0-.04-.1v.02Z"/>
    <path class="st1" d="M212.97,480.82c-.08-2.68.31-5.27,1.19-7.78.88-2.49,2.11-4.92,3.75-7.26,1.32-1.97,2.97-3.66,4.96-5.13,1.99-1.44,4.12-2.59,6.4-3.43,2.28-.84,4.62-1.34,7.03-1.51s4.73.04,6.95.65c.61.17,1.19.33,1.8.48.61.15,1.19.33,1.8.54,1.76.61,3.01,1.67,3.81,3.2s.9,3.2.36,5c-.29.86-.73,1.59-1.32,2.24s-1.23,1.15-1.95,1.51c-.73.36-1.51.56-2.36.61-.86.04-1.69-.13-2.49-.5-2.43-1.11-4.65-1.4-6.63-.9s-3.87,1.61-5.67,3.33c-4.06,3.98-5.29,8.73-3.7,14.27.46,1.67,1.3,2.89,2.47,3.68s2.55,1.3,4.12,1.51c1.36.21,2.72.23,4.06.06s2.66-.67,3.93-1.46c.86-.54,1.74-.88,2.66-.98s1.8-.02,2.62.25c.84.27,1.59.73,2.28,1.34.69.63,1.23,1.4,1.67,2.34.38.9.54,1.78.5,2.66s-.25,1.72-.61,2.53c-.36.82-.88,1.53-1.53,2.18-.67.65-1.46,1.15-2.41,1.53-2.78,1.11-5.59,1.82-8.41,2.16-2.85.31-5.75.1-8.75-.67-2.78-.69-5.21-1.78-7.3-3.26s-3.83-3.24-5.25-5.27c-1.4-2.03-2.45-4.23-3.1-6.59-.67-2.36-.94-4.79-.86-7.26l-.02-.04Z"/>
    <path class="st1" d="M266.16,465.4c1.28-.59,2.49-1.13,3.64-1.59s2.3-.82,3.45-1.07c1.15-.23,2.32-.33,3.49-.29s2.41.27,3.68.71c.82.21,1.46.56,1.99,1.05.5.48.9,1.05,1.19,1.69.27.65.46,1.34.54,2.07.08.75.1,1.46.06,2.13-.04.9-.25,1.69-.61,2.41s-.86,1.3-1.51,1.8c-.65.48-1.38.86-2.24,1.09s-1.78.31-2.76.23c-3.24-.33-5.92.63-8.06,2.89-.98.98-1.65,2.07-2.01,3.26s-.56,2.45-.61,3.77c-.08,2.01-.17,3.98-.23,5.92s-.15,3.91-.23,5.92c-.04.46-.1.92-.17,1.38-.06.44-.17.9-.29,1.38-.25,1.11-.8,1.97-1.61,2.55s-1.74.92-2.74.96c-1.36.08-2.45-.04-3.26-.38s-1.44-.84-1.93-1.46c-.48-.65-.8-1.36-.98-2.18s-.31-1.63-.36-2.49c-.08-1.67-.13-3.49-.13-5.48s0-4.02.04-6.11c.02-2.09.04-4.12.06-6.11,0-1.99,0-3.81-.04-5.48,0-.86,0-1.69.04-2.53,0-.84,0-1.67-.04-2.53,0-1.44.33-2.7.98-3.77.67-1.07,1.63-1.84,2.91-2.3,1.28-.59,2.53-.73,3.75-.42,1.21.31,2.32,1.03,3.31,2.13.13.13.23.25.31.38s.19.27.31.44l.02.02Z"/>
    <path class="st1" d="M300.2,503.35c-2.01-.5-3.75-1.36-5.25-2.55-1.49-1.19-2.74-2.66-3.7-4.39-.98-1.74-1.72-3.68-2.2-5.86-.48-2.18-.73-4.52-.73-7.03,0-1.28,0-2.87-.04-4.73-.02-1.88.1-3.7.36-5.48.25-1.78.73-3.33,1.4-4.67.69-1.34,1.76-2.16,3.2-2.41.98-.17,1.97-.19,2.95-.04s1.86.48,2.62.98c.77.5,1.36,1.21,1.8,2.07s.59,1.93.44,3.16c-.08.86-.21,1.93-.38,3.22s-.31,2.66-.44,4.06-.21,2.82-.23,4.23.08,2.64.29,3.68.59,1.86,1.13,2.43,1.3.73,2.28.48c1.03-.25,1.84-.84,2.47-1.76s1.09-2.01,1.4-3.29c.31-1.28.54-2.68.67-4.18s.21-3.01.25-4.48.1-2.85.17-4.12.19-2.34.36-3.2c.29-1.07.88-1.93,1.76-2.55.88-.65,1.84-1.03,2.89-1.19,1.05-.15,2.09-.06,3.14.25s1.86.92,2.47,1.82c.42.65.75,1.32.98,2.05.23.73.44,1.46.61,2.24.42,2.74.59,5.5.44,8.33-.13,2.82-.54,5.5-1.26,8.03s-1.65,4.88-2.85,7.01c-1.19,2.13-2.64,3.91-4.31,5.31s-3.58,2.36-5.69,2.89c-2.11.5-4.44.4-6.95-.31h-.04Z"/>
    <path class="st1" d="M335.98,486.97c-1.32-.86-2.78-1.69-4.35-2.49-2.18-1.19-3.79-2.7-4.83-4.52s-1.55-3.68-1.51-5.61.61-3.77,1.69-5.54,2.64-3.2,4.65-4.31c.9-.5,1.84-.88,2.85-1.13,1-.23,2.01-.36,3.03-.38,1.03,0,2.05.02,3.08.13s2.03.23,3.01.36c1.07.13,2.03.52,2.89,1.19s1.51,1.44,1.99,2.36c.46.92.73,1.88.8,2.91.06,1.03-.19,1.99-.73,2.89-.65,1.11-1.44,1.86-2.43,2.28s-2.05.54-3.2.42c-.73-.08-1.42-.25-2.07-.5s-1.34-.48-2.01-.71c-.56-.21-1.09-.21-1.57,0s-.86.54-1.13.96c-.25.42-.36.88-.29,1.34.06.48.38.86.92,1.15.9.56,1.82,1.03,2.74,1.4.69.33,1.34.65,1.99.9s1.28.54,1.93.9c1.93.94,3.47,2.13,4.65,3.58s1.99,3.01,2.43,4.67c.44,1.67.54,3.35.25,5.02-.27,1.69-.88,3.22-1.8,4.65-.92,1.4-2.18,2.57-3.77,3.52-1.59.94-3.49,1.46-5.67,1.61-.98.08-1.97.17-2.97.23s-1.99.1-2.97.1c-.65,0-1.28-.04-1.93-.1-.65-.06-1.26-.15-1.86-.23-1.15-.25-2.11-.71-2.91-1.34-.8-.65-1.38-1.4-1.8-2.28s-.61-1.82-.61-2.85.25-2.07.77-3.14c.65-1.32,1.49-2.34,2.53-3.08s2.34-.98,3.87-.77c.38.04.77.08,1.19.1.4.02.82.08,1.26.17.82.08,1.53.04,2.18-.13s1.09-.44,1.34-.8c.25-.36.27-.8.06-1.28-.21-.48-.77-1.03-1.67-1.63v-.02Z"/>
    <path class="st1" d="M362.16,482.56c-.69-.04-1.51-.13-2.47-.23s-1.88-.31-2.76-.61-1.59-.73-2.13-1.28c-.56-.54-.8-1.3-.71-2.24s.36-1.72.84-2.34,1.07-1.13,1.8-1.51c.73-.38,1.53-.67,2.43-.84s1.84-.29,2.82-.38v-2.95c-.04-1.8,0-3.58.13-5.38.13-1.8.42-3.58.9-5.38.25-1.32.86-2.41,1.82-3.22.96-.84,2.05-1.32,3.31-1.44,1.32-.13,2.53.13,3.64.77s1.9,1.57,2.36,2.82c.21.54.36,1.13.42,1.69s.1,1.17.1,1.76c0,1.44-.04,2.87-.1,4.25s-.13,2.78-.17,4.18v.92c0,.27,0,.59.06.92.69,0,1.32,0,1.88-.04s1.13,0,1.69.1c1.03.08,1.93.36,2.68.8.77.44,1.38,1.03,1.86,1.74.46.71.75,1.49.84,2.36s-.06,1.74-.44,2.59c-.5,1.11-1.21,1.9-2.11,2.41-.9.48-1.95.77-3.14.86-.61.04-1.23.06-1.88.04-.67-.02-1.36-.04-2.07-.04-.04,1.57-.06,3.05-.04,4.41s.1,2.7.23,4,.29,2.57.48,3.83c.19,1.26.44,2.59.73,4,.13.9.06,1.72-.19,2.47s-.82,1.36-1.67,1.82c-1.57.86-3.1.75-4.54-.31-1.4-.94-2.53-2.24-3.37-3.87-.84-1.65-1.49-3.43-1.95-5.38s-.8-3.91-.96-5.88c-.17-1.99-.27-3.81-.31-5.48v.04Z"/>
    <path class="st1" d="M391.29,505.78c-.38.33-.82.59-1.32.77-.48.17-1.03.15-1.63-.06-1.23-.38-1.86-1.19-1.86-2.43v-2.72c0-.92,0-1.84.06-2.78,0-.21.04-.46.1-.77.06-.29.15-.59.23-.9.21-.73.61-1.3,1.15-1.74.54-.42,1.19-.65,1.93-.65.69-.04,1.3.15,1.86.59.54.42.98,1,1.28,1.74.21.73.33,1.49.38,2.3s-.02,1.63-.19,2.47-.42,1.61-.73,2.34-.73,1.34-1.26,1.86v-.02Z"/>
    <path class="st1" d="M429.56,491.64c.42-1.36.82-2.72,1.19-4.1.36-1.36.71-2.74,1.07-4.16.29-1.32.69-2.57,1.15-3.77.46-1.19,1.05-2.39,1.74-3.58,1.19-1.97,3.01-2.93,5.44-2.89,1.57.08,2.66.69,3.26,1.8.73,1.19,1.28,2.45,1.67,3.77.61,1.61,1.15,3.24,1.63,4.85.48,1.61,1.03,3.24,1.63,4.85.13.38.38,1.03.77,1.93.38.9.82,1.67,1.28,2.34.46.67.92,1.03,1.34,1.09s.75-.52.96-1.76c.33-1.93.44-3.85.31-5.8s-.29-3.87-.5-5.8c-.29-2.39-.56-4.77-.8-7.14-.23-2.36-.5-4.75-.8-7.14-.08-.38-.15-.8-.19-1.21-.04-.42-.1-.84-.19-1.21-.38-1.67-.31-3.08.19-4.25s1.26-2.09,2.2-2.76c.96-.67,2.05-1.05,3.31-1.19,1.23-.13,2.41.02,3.49.44s2.01,1.15,2.76,2.13c.75,1,1.13,2.32,1.13,3.93.04,3.98.08,7.89.13,11.78s.02,7.78-.06,11.72c-.04,2.05-.27,4.04-.71,5.98-.42,1.95-1.07,3.85-1.93,5.73-.17.5-.38,1-.61,1.46-.23.48-.5.94-.8,1.4-1.23,1.88-2.8,3.12-4.71,3.75s-3.95.56-6.17-.17c-2.59-.82-4.65-2.32-6.15-4.54-.56-.73-1.07-1.49-1.53-2.3s-1-1.67-1.59-2.55c-.17.38-.31.73-.44,1.03-.13.29-.27.59-.44.84-.42.77-.82,1.53-1.19,2.3s-.77,1.46-1.26,2.11c-1.28,1.57-2.78,2.72-4.48,3.39-1.72.69-3.43.94-5.15.77-1.74-.17-3.37-.73-4.92-1.69-1.57-.96-2.78-2.32-3.68-4.06-1.15-2.09-1.78-4.29-1.86-6.59-.04-2.09-.04-4.21,0-6.34s.1-4.29.19-6.47c.08-1.93.17-3.81.25-5.67.08-1.86.21-3.72.38-5.61.04-.73.08-1.32.13-1.8s.08-.92.13-1.34.08-.88.13-1.34.1-1.07.19-1.8c.21-1.72.92-3.05,2.13-4.06s2.7-1.38,4.46-1.13c1.57.21,2.82.94,3.75,2.18s1.28,2.64,1.07,4.23c-.48,4.06-.73,8.08-.77,12.09s-.1,8.01-.19,12.03v1.26c0,.59,0,1.19.04,1.82s.06,1.26.13,1.86.17,1,.29,1.26c.13.23.29.23.52-.04.21-.25.46-.9.77-1.93l-.1.04Z"/>
    <path class="st1" d="M479.54,486.84c.13,1.03.29,1.88.48,2.55.19.69.46,1.23.8,1.67.33.42.77.77,1.28,1.03s1.17.46,1.99.65c.73.13,1.42.15,2.07.04.67-.1,1.26-.48,1.76-1.13.21-.21.44-.4.67-.59.23-.17.46-.36.67-.59,1.11-.86,2.28-1.26,3.52-1.21,1.23.04,2.32.5,3.26,1.4.86.9,1.32,1.97,1.4,3.22s-.27,2.43-1.09,3.49c-.82.98-1.69,1.88-2.66,2.72s-2.01,1.53-3.16,2.07c-2.09.9-4.21,1.36-6.34,1.38s-4.14-.36-6.01-1.13c-1.88-.77-3.58-1.9-5.08-3.43-1.51-1.51-2.68-3.37-3.49-5.54-1.32-3.45-1.95-6.93-1.86-10.44.08-3.49.98-6.93,2.68-10.29.94-1.8,2.11-3.33,3.52-4.6,1.4-1.28,3.01-2.34,4.79-3.2,1.28-.54,2.68-.86,4.23-.92,1.53-.06,3.05.1,4.54.5,1.49.4,2.89,1.03,4.18,1.82,1.3.82,2.39,1.8,3.22,2.95.73.98,1.21,2.01,1.44,3.1.23,1.09.25,2.22.04,3.37-.29,1.76-.84,3.35-1.59,4.79s-1.84,2.74-3.2,3.83c-2.34,2.01-5,2.93-7.93,2.76-.73-.08-1.42-.15-2.07-.17-.67,0-1.36-.08-2.07-.17l.02.06ZM479.54,479.79c.82,0,1.57,0,2.3.04.73.02,1.44,0,2.18-.04.33-.04.67-.13.98-.25s.61-.29.86-.5c.54-.21.92-.54,1.09-1.03s.21-.98.13-1.53c-.17-.61-.46-.98-.86-1.15s-.84-.29-1.32-.38c-.61-.08-1.21,0-1.86.19s-1.21.54-1.74.96c-.5.42-.92.96-1.26,1.61-.31.65-.5,1.34-.54,2.11l.04-.04Z"/>
    <path class="st1" d="M543.78,467.05c-.04.82-.08,1.53-.13,2.18s-.06,1.26-.06,1.86v16.95c0,1.97.02,3.7.06,5.25.04,1.53.13,3.14.25,4.79,0,.38,0,.8-.04,1.26-.02.44-.1.88-.23,1.32-.46,1.23-1.28,2.13-2.43,2.7s-2.34.8-3.58.71-2.36-.48-3.39-1.19-1.63-1.69-1.8-2.97c-.08-.33-.13-.69-.1-1.03,0-.33.04-.69.04-1.03.04-2.47.08-4.85.1-7.14,0-2.28.04-4.54.06-6.76,0-2.22.06-4.48.1-6.76s.08-4.69.13-7.2v-2.74c-.94-.08-1.84-.19-2.68-.29-.86-.1-1.69-.25-2.49-.42-.86-.21-1.69-.42-2.53-.65-.84-.21-1.65-.48-2.47-.84-.98-.46-1.84-1.13-2.55-1.99-.46-.61-.73-1.23-.8-1.93s.04-1.32.29-1.88c.25-.59.65-1.05,1.19-1.44.54-.38,1.19-.63,1.95-.71s1.53-.13,2.28-.13,1.49-.04,2.22-.13c3.08-.25,6.11-.52,9.08-.84s6.03-.59,9.08-.84c1.11-.13,2.2-.21,3.22-.25,1.05-.04,2.11-.06,3.22-.06,1.72,0,3.16.5,4.37,1.51s1.93,2.26,2.16,3.75c.29,1.93-.13,3.58-1.26,4.96s-2.66,2.18-4.58,2.34c-.73,0-1.44-.02-2.13-.06s-1.4-.1-2.07-.19c-.73-.04-1.44-.06-2.13-.06s-1.49,0-2.34-.06h-.02Z"/>
    <path class="st1" d="M572.78,465.4c1.28-.59,2.49-1.13,3.64-1.59s2.3-.82,3.45-1.07c1.15-.23,2.32-.33,3.49-.29s2.41.27,3.68.71c.82.21,1.46.56,1.99,1.05.5.48.9,1.05,1.19,1.69.27.65.46,1.34.54,2.07.08.75.1,1.46.06,2.13-.04.9-.25,1.69-.61,2.41s-.86,1.3-1.51,1.8c-.65.48-1.38.86-2.24,1.09s-1.78.31-2.76.23c-3.24-.33-5.92.63-8.06,2.89-.98.98-1.65,2.07-2.01,3.26s-.56,2.45-.61,3.77c-.08,2.01-.17,3.98-.23,5.92s-.15,3.91-.23,5.92c-.04.46-.1.92-.17,1.38-.06.44-.17.9-.29,1.38-.25,1.11-.8,1.97-1.61,2.55s-1.74.92-2.74.96c-1.36.08-2.45-.04-3.26-.38s-1.44-.84-1.93-1.46c-.48-.65-.8-1.36-.98-2.18s-.31-1.63-.36-2.49c-.08-1.67-.13-3.49-.13-5.48s0-4.02.04-6.11c.02-2.09.04-4.12.06-6.11,0-1.99,0-3.81-.04-5.48,0-.86,0-1.69.04-2.53,0-.84,0-1.67-.04-2.53,0-1.44.33-2.7.98-3.77.67-1.07,1.63-1.84,2.91-2.3,1.28-.59,2.53-.73,3.75-.42,1.21.31,2.32,1.03,3.31,2.13.13.13.23.25.31.38s.19.27.31.44l.02.02Z"/>
    <path class="st1" d="M606.82,503.35c-2.01-.5-3.75-1.36-5.25-2.55-1.49-1.19-2.74-2.66-3.7-4.39-.98-1.74-1.72-3.68-2.2-5.86-.48-2.18-.73-4.52-.73-7.03,0-1.28,0-2.87-.04-4.73-.02-1.88.1-3.7.36-5.48.25-1.78.73-3.33,1.4-4.67.69-1.34,1.76-2.16,3.2-2.41.98-.17,1.97-.19,2.95-.04s1.86.48,2.62.98c.77.5,1.36,1.21,1.8,2.07s.59,1.93.44,3.16c-.08.86-.21,1.93-.38,3.22s-.31,2.66-.44,4.06-.21,2.82-.23,4.23.08,2.64.29,3.68.59,1.86,1.13,2.43,1.3.73,2.28.48c1.03-.25,1.84-.84,2.47-1.76s1.09-2.01,1.4-3.29c.31-1.28.54-2.68.67-4.18s.21-3.01.25-4.48.1-2.85.17-4.12.19-2.34.36-3.2c.29-1.07.88-1.93,1.76-2.55.88-.65,1.84-1.03,2.89-1.19,1.05-.15,2.09-.06,3.14.25s1.86.92,2.47,1.82c.42.65.75,1.32.98,2.05s.44,1.46.61,2.24c.42,2.74.59,5.5.44,8.33-.13,2.82-.54,5.5-1.26,8.03s-1.65,4.88-2.85,7.01c-1.19,2.13-2.64,3.91-4.31,5.31s-3.58,2.36-5.69,2.89c-2.11.5-4.44.4-6.95-.31h-.04Z"/>
    <path class="st1" d="M642.6,486.97c-1.32-.86-2.78-1.69-4.35-2.49-2.18-1.19-3.79-2.7-4.83-4.52s-1.55-3.68-1.51-5.61.61-3.77,1.69-5.54,2.64-3.2,4.65-4.31c.9-.5,1.84-.88,2.85-1.13,1-.23,2.01-.36,3.03-.38,1.03,0,2.05.02,3.08.13s2.03.23,3.01.36c1.07.13,2.03.52,2.89,1.19.86.67,1.51,1.44,1.99,2.36.46.92.73,1.88.8,2.91.06,1.03-.19,1.99-.73,2.89-.65,1.11-1.44,1.86-2.43,2.28s-2.05.54-3.2.42c-.73-.08-1.42-.25-2.07-.5s-1.34-.48-2.01-.71c-.56-.21-1.09-.21-1.57,0s-.86.54-1.13.96c-.25.42-.36.88-.29,1.34.06.48.38.86.92,1.15.9.56,1.82,1.03,2.74,1.4.69.33,1.34.65,1.99.9s1.28.54,1.92.9c1.92.94,3.47,2.13,4.65,3.58s1.99,3.01,2.43,4.67c.44,1.67.54,3.35.25,5.02-.27,1.69-.88,3.22-1.8,4.65-.92,1.4-2.18,2.57-3.77,3.52-1.59.94-3.49,1.46-5.67,1.61-.98.08-1.97.17-2.97.23s-1.99.1-2.97.1c-.65,0-1.28-.04-1.92-.1s-1.26-.15-1.86-.23c-1.15-.25-2.11-.71-2.91-1.34-.8-.65-1.38-1.4-1.8-2.28s-.61-1.82-.61-2.85.25-2.07.77-3.14c.65-1.32,1.49-2.34,2.53-3.08s2.34-.98,3.87-.77c.38.04.77.08,1.19.1.4.02.82.08,1.26.17.82.08,1.53.04,2.18-.13s1.09-.44,1.34-.8.27-.8.06-1.28c-.21-.48-.77-1.03-1.67-1.63v-.02Z"/>
    <path class="st1" d="M668.78,482.56c-.69-.04-1.51-.13-2.47-.23s-1.88-.31-2.76-.61-1.59-.73-2.13-1.28c-.56-.54-.8-1.3-.71-2.24s.36-1.72.84-2.34,1.07-1.13,1.8-1.51,1.53-.67,2.43-.84,1.84-.29,2.82-.38v-2.95c-.04-1.8,0-3.58.13-5.38.13-1.8.42-3.58.9-5.38.25-1.32.86-2.41,1.82-3.22.96-.84,2.05-1.32,3.31-1.44,1.32-.13,2.53.13,3.64.77,1.11.65,1.9,1.57,2.36,2.82.21.54.36,1.13.42,1.69s.1,1.17.1,1.76c0,1.44-.04,2.87-.1,4.25s-.13,2.78-.17,4.18v.92c0,.27,0,.59.06.92.69,0,1.32,0,1.88-.04s1.13,0,1.69.1c1.03.08,1.92.36,2.68.8.77.44,1.38,1.03,1.86,1.74.46.71.75,1.49.84,2.36.08.88-.06,1.74-.44,2.59-.5,1.11-1.21,1.9-2.11,2.41-.9.48-1.95.77-3.14.86-.61.04-1.23.06-1.88.04-.67-.02-1.36-.04-2.07-.04-.04,1.57-.06,3.05-.04,4.41s.1,2.7.23,4,.29,2.57.48,3.83c.19,1.26.44,2.59.73,4,.13.9.06,1.72-.19,2.47-.25.75-.82,1.36-1.67,1.82-1.57.86-3.1.75-4.54-.31-1.4-.94-2.53-2.24-3.37-3.87-.84-1.65-1.49-3.43-1.95-5.38s-.8-3.91-.96-5.88c-.17-1.99-.27-3.81-.31-5.48v.04Z"/>
    <path class="st1" d="M693.55,499.69c.08-1.28.54-2.24,1.34-2.89.82-.65,1.67-.94,2.59-.92s1.76.36,2.53,1.03c.77.67,1.15,1.67,1.15,3.03-.21,1.19-.75,2.09-1.59,2.7-.86.61-1.74.88-2.66.86-.92,0-1.74-.33-2.43-.96-.71-.63-1.03-1.57-.92-2.85h-.02Z"/>
  </g>
  <g>
    <path class="st1" d="M559.81,267c-2.13-11.97-11.19-22.43-22.72-26.24-17.37-5.75-39.65,2.07-52.69-10.8-6.65-6.59-8.22-17.72-3.66-25.9,7.26-3.58,12.99-7.22,20.84-7.39,8.35-.19,16.03,2.05,24.21-1.09,9.69-3.77,16.11-13.5,18.41-23.64,2.28-10.15,1.09-20.74-.52-30.99-1.57-10-3.72-20.3-9.86-28.33-9.27-12.12-24.94-15.99-40.57-17.62,2.39,13.41-2.51,28.71-11.88,34-3.24,1.84-6.95,2.76-10.67,3.01-10.15.67-20.48-3.72-27.03-11.49-6.15-7.26-8.81-17.35-7.16-29.27-5.48-.36-10.96-.67-16.45-1.03-3.77-.23-7.53-.48-11.3-.67,2.28,8.85,5.21,18.56,4.65,24.38-.65,6.61-3.6,13.2-8.89,17.2-2.82,2.16-6.17,3.52-9.58,4.56-6.32,2.01-13.06,3.14-19.56,1.99-9.27-1.61-17.53-8.12-21.32-16.72-3.37-7.66-2.3-18.79,1.57-29.23-17.53,3.45-34.52,10.78-47.06,23.39-12.83,12.91-20.13,30.49-23.6,48.38-9.08,46.85.25,96.27,21.36,138.66,2.2,4.44,4.58,8.85,8.03,12.39,6.65,6.84,16.36,9.56,25.69,11.68,12.24,2.78,30.55,1.42,35.19,15.38,3.37,10.11,6.01,33.1-1.4,41.76-3.77,4.39-9.81,5.88-15.46,6.97-5.67,1.11-11.72,2.28-15.88,6.3-4.14,4-4.92,11.99,0,14.98,2.09,1.3,4.69,1.38,7.16,1.44,12.74.27,25.53.19,38.27-.27,5.36-.17,11.36-.75,14.77-4.88,2.89-3.47,2.99-8.39,3.03-12.91.13-13.04.92-26.09,2.36-39.07.38-3.47,0-15.17,2.45-17.58,1.3-1.28,3.45-1.59,5.8-1.51,1.8.06,3.39,1.19,4.06,2.85,6.95,16.8,12.01,37.85,11.09,55.03-.1,1.99-.25,4.06.46,5.94,1.69,4.52,7.28,5.94,12.07,6.57,11.91,1.57,23.92,2.39,35.95,2.43,6.72,0,15.15-1.44,16.95-7.93,1.03-3.66-.77-7.68-3.6-10.21s-6.57-3.83-10.25-4.77c-5.65-1.42-11.49-2.16-17.3-2.16s-13.45.1-16.45-5.17c-1.13-1.99-1.32-4.35-1.46-6.63-.59-9.04-2.24-29.08,7.6-33.37,4.67-2.05,16.2.63,21.45.8,7.37.21,14.73.38,22.1.59,11.76.29,23.83.54,35.05-3.01,11.26-3.56,21.72-11.72,24.86-23.08,2.07-7.49.8-15.44.82-23.23.04-8.16,1.55-16.4.13-24.44l-.02-.06Z"/>
    <path class="st0" d="M379.5,121.66c5.71.15,11.28-3.31,14-8.35,2.76-5,2.76-11.32.42-16.55-1-2.24-2.72-5.19-3.87-7.87h-.13l-18.48-.29c-.06.31-.13.61-.21.92-1.76,7.97-6.44,15.15-4.48,22.41,1.51,5.5,7.01,9.56,12.72,9.71l.02.02Z"/>
    <path class="st0" d="M453.09,117.07c4.12,4.56,12.16,3.79,16.47-.61,4.06-4.14,7.45-15.3,6.74-22.74,0-.46-.08-.9-.15-1.34l-27.41-1.82c.13.46.23.94.33,1.44,1.63,8.29-.61,19.94,4.02,25.05v.02Z"/>
  </g>
</svg>