<?xml version="1.0" encoding="UTF-8"?>
<svg id="Layer_1" data-name="Layer 1" xmlns="http://www.w3.org/2000/svg" viewBox="0 0 841.89 595.28">
  <defs>
    <style>
      .cls-1 {
        fill: #48111c;
      }

      .cls-2 {
        fill: #010101;
      }
    </style>
  </defs>
  <g>
    <path class="cls-1" d="M287.51,380.93c.04-.69.06-1.4.05-2.11-.01-.71-.02-1.43-.02-2.14,0-.2-.01-.4-.03-.6-.02-.19-.01-.39.03-.6.06-.55.24-1,.53-1.35.29-.35.64-.6,1.05-.75.41-.15.83-.22,1.28-.2.45.02.86.13,1.23.34.38.2.69.49.94.86.25.37.38.82.38,1.35,0,.69-.02,1.37-.07,2.03-.05.66-.1,1.33-.15,2-.07.86-.13,1.77-.18,2.75-.05.98-.08,1.97-.1,2.98-.02,1.01-.03,2.01-.03,3s0,1.92.03,2.8c.04.8.04,1.61,0,2.45-.04.65-.28,1.21-.72,1.68s-.98.74-1.61.83c-.62.1-1.2,0-1.75-.32-.55-.32-.94-.77-1.17-1.36-.12-.33-.18-.67-.18-1.04,0-2.79.07-5.22.2-7.26.13-2.05.23-3.83.29-5.34Z"/>
    <path class="cls-1" d="M299.93,379.03c.73-.16,1.41-.33,2.04-.51.63-.17,1.26-.28,1.91-.32,1.34-.14,2.44.04,3.3.54s1.53,1.2,2.02,2.09c.49.9.83,1.93,1.02,3.11s.3,2.34.31,3.52c0,1.17-.04,2.29-.14,3.35-.1,1.06-.2,1.93-.31,2.6-.04.35-.15.68-.32.99-.17.32-.39.6-.66.86-.27.26-.57.46-.9.61s-.67.23-.99.23c-.31.04-.61.02-.92-.06-.31-.08-.6-.17-.89-.28-.87-.31-1.29-.94-1.25-1.9.06-.8.12-1.59.17-2.39.05-.8.1-1.59.14-2.39,0-.59,0-1.19.02-1.79s.02-1.21.02-1.82c0-.2-.01-.41-.03-.61-.02-.2-.07-.41-.15-.61-.1-.26-.25-.48-.44-.64s-.4-.26-.62-.31c-.22-.04-.44-.02-.67.08-.22.09-.43.25-.61.47-.53.65-.87,1.36-1.03,2.13-.16.77-.24,1.54-.24,2.31,0,.92.03,1.82.08,2.69.05.88.08,1.77.08,2.69,0,.57-.13,1.1-.4,1.59-.1.14-.23.29-.4.43-.16.14-.33.22-.49.24-.59.16-1.18.26-1.76.29s-1.17-.06-1.76-.26c-.29-.1-.52-.26-.7-.49-.18-.22-.32-.48-.41-.76-.09-.28-.15-.58-.18-.89s-.05-.59-.05-.86c.04-1.85.08-3.7.12-5.52.04-1.82.08-3.65.12-5.49.02-.37.06-.72.12-1.05s.14-.67.24-.99c.16-.59.41-1.08.75-1.45.34-.38.78-.63,1.33-.75.57-.1,1.05-.03,1.45.21.4.24.74.6,1.02,1.07.02.04.05.07.08.08s.03,0-.02-.05Z"/>
    <path class="cls-1" d="M321.55,385.18c-.04-1.28.15-2.52.57-3.72.42-1.19,1.01-2.35,1.79-3.47.63-.94,1.42-1.75,2.37-2.45.95-.69,1.97-1.24,3.06-1.64,1.09-.4,2.21-.64,3.36-.72,1.15-.08,2.26.02,3.32.31.29.08.57.16.86.23.29.07.57.16.86.26.84.29,1.44.8,1.82,1.53.38.73.43,1.53.17,2.39-.14.41-.35.76-.63,1.07s-.59.55-.93.72c-.35.17-.72.27-1.13.29-.41.02-.81-.06-1.19-.24-1.16-.53-2.22-.67-3.17-.43s-1.85.77-2.71,1.59c-1.94,1.9-2.53,4.17-1.77,6.82.22.8.62,1.38,1.18,1.76.56.38,1.22.62,1.97.72.65.1,1.3.11,1.94.03s1.27-.32,1.88-.7c.41-.26.83-.42,1.27-.47.44-.05.86-.01,1.25.12.4.13.76.35,1.09.64.33.3.59.67.8,1.12.18.43.26.85.24,1.27s-.12.82-.29,1.21c-.17.39-.42.73-.73,1.04-.32.31-.7.55-1.15.73-1.33.53-2.67.87-4.02,1.03-1.36.15-2.75.05-4.18-.32-1.33-.33-2.49-.85-3.49-1.56-1-.71-1.83-1.55-2.51-2.52-.67-.97-1.17-2.02-1.48-3.15-.32-1.13-.45-2.29-.41-3.47Z"/>
    <path class="cls-1" d="M346.97,377.81c.61-.28,1.19-.54,1.74-.76s1.1-.39,1.65-.51c.55-.11,1.11-.16,1.67-.14s1.15.13,1.76.34c.39.1.7.27.95.5.24.23.43.5.57.81.13.31.22.64.26.99.04.36.05.7.03,1.02-.02.43-.12.81-.29,1.15-.17.34-.41.62-.72.86-.31.23-.66.41-1.07.52-.41.11-.85.15-1.32.11-1.55-.16-2.83.3-3.85,1.38-.47.47-.79.99-.96,1.56s-.27,1.17-.29,1.8c-.04.96-.08,1.9-.11,2.83-.03.93-.07,1.87-.11,2.83-.02.22-.05.44-.08.66-.03.21-.08.43-.14.66-.12.53-.38.94-.77,1.22s-.83.44-1.31.46c-.65.04-1.17-.02-1.56-.18s-.69-.4-.92-.7c-.23-.31-.38-.65-.47-1.04-.09-.39-.15-.78-.17-1.19-.04-.8-.06-1.67-.06-2.62s0-1.92.02-2.92c.01-1,.02-1.97.03-2.92,0-.95,0-1.82-.02-2.62,0-.41,0-.81.02-1.21,0-.4,0-.8-.02-1.21,0-.69.16-1.29.47-1.8.32-.51.78-.88,1.39-1.1.61-.28,1.21-.35,1.79-.2.58.15,1.11.49,1.58,1.02.06.06.11.12.15.18s.09.13.15.21Z"/>
    <path class="cls-1" d="M363.24,395.95c-.96-.24-1.79-.65-2.51-1.22-.71-.57-1.31-1.27-1.77-2.1-.47-.83-.82-1.76-1.05-2.8-.23-1.04-.35-2.16-.35-3.36,0-.61,0-1.37-.02-2.26-.01-.9.05-1.77.17-2.62.12-.85.35-1.59.67-2.23.33-.64.84-1.03,1.53-1.15.47-.08.94-.09,1.41-.02.47.07.89.23,1.25.47.37.24.65.58.86.99s.28.92.21,1.51c-.04.41-.1.92-.18,1.54-.08.62-.15,1.27-.21,1.94s-.1,1.35-.11,2.02.04,1.26.14,1.76c.1.5.28.89.54,1.16s.62.35,1.09.23c.49-.12.88-.4,1.18-.84.3-.44.52-.96.67-1.57.15-.61.26-1.28.32-2,.06-.72.1-1.44.12-2.14s.05-1.36.08-1.97.09-1.12.17-1.53c.14-.51.42-.92.84-1.22.42-.31.88-.49,1.38-.57.5-.07,1-.03,1.5.12s.89.44,1.18.87c.2.31.36.63.47.98.11.35.21.7.29,1.07.2,1.31.28,2.63.21,3.98-.06,1.35-.26,2.63-.6,3.84s-.79,2.33-1.36,3.35c-.57,1.02-1.26,1.87-2.06,2.54s-1.71,1.13-2.72,1.38c-1.01.24-2.12.19-3.32-.15Z"/>
    <path class="cls-1" d="M380.34,388.12c-.63-.41-1.33-.81-2.08-1.19-1.04-.57-1.81-1.29-2.31-2.16-.5-.87-.74-1.76-.72-2.68s.29-1.8.81-2.65c.52-.85,1.26-1.53,2.22-2.06.43-.24.88-.42,1.36-.54.48-.11.96-.17,1.45-.18.49,0,.98.01,1.47.06.49.05.97.11,1.44.17.51.06.97.25,1.38.57.41.32.72.69.95,1.13.22.44.35.9.38,1.39.03.49-.09.95-.35,1.38-.31.53-.69.89-1.16,1.09s-.98.26-1.53.2c-.35-.04-.68-.12-.99-.24s-.64-.23-.96-.34c-.27-.1-.52-.1-.75,0-.23.1-.41.26-.54.46-.12.2-.17.42-.14.64.03.23.18.41.44.55.43.27.87.49,1.31.67.33.16.64.31.95.43.31.12.61.26.92.43.92.45,1.66,1.02,2.22,1.71.56.69.95,1.44,1.16,2.23.21.8.26,1.6.12,2.4-.13.81-.42,1.54-.86,2.22-.44.67-1.04,1.23-1.8,1.68-.76.45-1.67.7-2.71.77-.47.04-.94.08-1.42.11s-.95.05-1.42.05c-.31,0-.61-.02-.92-.05-.31-.03-.6-.07-.89-.11-.55-.12-1.01-.34-1.39-.64-.38-.31-.66-.67-.86-1.09s-.29-.87-.29-1.36.12-.99.37-1.5c.31-.63.71-1.12,1.21-1.47.5-.35,1.12-.47,1.85-.37.18.02.37.04.57.05.19.01.39.04.6.08.39.04.73.02,1.04-.06s.52-.21.64-.38c.12-.17.13-.38.03-.61-.1-.23-.37-.49-.8-.78Z"/>
    <path class="cls-1" d="M392.85,386.01c-.33-.02-.72-.06-1.18-.11-.46-.05-.9-.15-1.32-.29s-.76-.35-1.02-.61c-.27-.26-.38-.62-.34-1.07.04-.45.17-.82.4-1.12s.51-.54.86-.72c.35-.18.73-.32,1.16-.4.43-.08.88-.14,1.35-.18v-1.41c-.02-.86,0-1.71.06-2.57.06-.86.2-1.71.43-2.57.12-.63.41-1.15.87-1.54.46-.4.98-.63,1.58-.69.63-.06,1.21.06,1.74.37.53.31.91.75,1.13,1.35.1.26.17.54.2.81s.05.56.05.84c0,.69-.02,1.37-.05,2.03s-.06,1.33-.08,2v.44c0,.13,0,.28.03.44.33,0,.63,0,.9-.02s.54,0,.81.05c.49.04.92.17,1.28.38.37.21.66.49.89.83.22.34.36.71.4,1.13.04.42-.03.83-.21,1.24-.24.53-.58.91-1.01,1.15-.43.23-.93.37-1.5.41-.29.02-.59.03-.9.02-.32-.01-.65-.02-.99-.02-.02.75-.03,1.46-.02,2.11.01.65.05,1.29.11,1.91s.14,1.23.23,1.83c.09.6.21,1.24.35,1.91.06.43.03.82-.09,1.18-.12.36-.39.65-.8.87-.75.41-1.48.36-2.17-.15-.67-.45-1.21-1.07-1.61-1.85-.4-.79-.71-1.64-.93-2.57-.22-.93-.38-1.87-.46-2.81-.08-.95-.13-1.82-.15-2.62Z"/>
    <path class="cls-1" d="M406.77,397.11c-.18.16-.39.28-.63.37-.23.08-.49.07-.78-.03-.59-.18-.89-.57-.89-1.16v-1.3c0-.44,0-.88.03-1.33,0-.1.02-.22.05-.37.03-.14.07-.28.11-.43.1-.35.29-.62.55-.83.26-.2.57-.31.92-.31.33-.02.62.07.89.28.26.2.47.48.61.83.1.35.16.71.18,1.1s-.01.78-.09,1.18c-.08.4-.2.77-.35,1.12-.15.35-.35.64-.6.89Z"/>
    <path class="cls-1" d="M425.06,390.35c.2-.65.39-1.3.57-1.96.17-.65.34-1.31.51-1.99.14-.63.33-1.23.55-1.8.22-.57.5-1.14.83-1.71.57-.94,1.44-1.4,2.6-1.38.75.04,1.27.33,1.56.86.35.57.61,1.17.8,1.8.29.77.55,1.55.78,2.32.23.77.49,1.55.78,2.32.06.18.18.49.37.92.18.43.39.8.61,1.12.22.32.44.49.64.52.2.03.36-.25.46-.84.16-.92.21-1.84.15-2.77-.06-.93-.14-1.85-.24-2.77-.14-1.14-.27-2.28-.38-3.41-.11-1.13-.24-2.27-.38-3.41-.04-.18-.07-.38-.09-.58-.02-.2-.05-.4-.09-.58-.18-.8-.15-1.47.09-2.03s.6-1,1.05-1.32c.46-.32.98-.5,1.58-.57.59-.06,1.15.01,1.67.21s.96.55,1.32,1.02c.36.48.54,1.11.54,1.88.02,1.9.04,3.77.06,5.63s.01,3.72-.03,5.6c-.02.98-.13,1.93-.34,2.86-.2.93-.51,1.84-.92,2.74-.08.24-.18.48-.29.7-.11.23-.24.45-.38.67-.59.9-1.34,1.49-2.25,1.79s-1.89.27-2.95-.08c-1.24-.39-2.22-1.11-2.94-2.17-.27-.35-.51-.71-.73-1.1s-.48-.8-.76-1.22c-.08.18-.15.35-.21.49-.06.14-.13.28-.21.4-.2.37-.39.73-.57,1.1s-.37.7-.6,1.01c-.61.75-1.33,1.3-2.14,1.62-.82.33-1.64.45-2.46.37-.83-.08-1.61-.35-2.35-.81-.75-.46-1.33-1.11-1.76-1.94-.55-1-.85-2.05-.89-3.15-.02-1-.02-2.01,0-3.03.02-1.02.05-2.05.09-3.09.04-.92.08-1.82.12-2.71.04-.89.1-1.78.18-2.68.02-.35.04-.63.06-.86s.04-.44.06-.64c.02-.2.04-.42.06-.64.02-.22.05-.51.09-.86.1-.82.44-1.46,1.02-1.94.58-.48,1.29-.66,2.13-.54.75.1,1.35.45,1.79,1.04s.61,1.26.51,2.02c-.23,1.94-.35,3.86-.37,5.78-.02,1.92-.05,3.83-.09,5.75v.6c0,.28,0,.57.02.87s.03.6.06.89c.03.29.08.48.14.6.06.11.14.11.25-.02.1-.12.22-.43.37-.92Z"/>
    <path class="cls-1" d="M448.95,388.06c.06.49.14.9.23,1.22.09.33.22.59.38.8.16.2.37.37.61.49.24.12.56.22.95.31.35.06.68.07.99.02.32-.05.6-.23.84-.54.1-.1.21-.19.32-.28.11-.08.22-.17.32-.28.53-.41,1.09-.6,1.68-.58.59.02,1.11.24,1.56.67.41.43.63.94.67,1.54.04.6-.13,1.16-.52,1.67-.39.47-.81.9-1.27,1.3-.46.4-.96.73-1.51.99-1,.43-2.01.65-3.03.66-1.02.01-1.98-.17-2.87-.54-.9-.37-1.71-.91-2.43-1.64-.72-.72-1.28-1.61-1.67-2.65-.63-1.65-.93-3.31-.89-4.99.04-1.67.47-3.31,1.28-4.92.45-.86,1.01-1.59,1.68-2.2.67-.61,1.44-1.12,2.29-1.53.61-.26,1.28-.41,2.02-.44.73-.03,1.46.05,2.17.24.71.19,1.38.49,2,.87.62.39,1.14.86,1.54,1.41.35.47.58.96.69,1.48.11.52.12,1.06.02,1.61-.14.84-.4,1.6-.76,2.29s-.88,1.31-1.53,1.83c-1.12.96-2.39,1.4-3.79,1.32-.35-.04-.68-.07-.99-.08-.32,0-.65-.04-.99-.08ZM448.95,384.69c.39,0,.75,0,1.1.02.35.01.69,0,1.04-.02.16-.02.32-.06.47-.12.15-.06.29-.14.41-.24.26-.1.44-.26.52-.49s.1-.47.06-.73c-.08-.29-.22-.47-.41-.55-.19-.08-.4-.14-.63-.18-.29-.04-.58,0-.89.09s-.58.26-.83.46c-.24.2-.44.46-.6.77-.15.31-.24.64-.26,1.01Z"/>
    <path class="cls-1" d="M479.65,378.6c-.02.39-.04.73-.06,1.04s-.03.6-.03.89v8.1c0,.94.01,1.77.03,2.51.02.73.06,1.5.12,2.29,0,.18,0,.38-.02.6-.01.21-.05.42-.11.63-.22.59-.61,1.02-1.16,1.29s-1.12.38-1.71.34c-.59-.04-1.13-.23-1.62-.57-.49-.34-.78-.81-.86-1.42-.04-.16-.06-.33-.05-.49,0-.16.02-.33.02-.49.02-1.18.04-2.32.05-3.41,0-1.09.02-2.17.03-3.23,0-1.06.03-2.14.05-3.23.02-1.09.04-2.24.06-3.44v-1.31c-.45-.04-.88-.09-1.28-.14-.41-.05-.81-.12-1.19-.2-.41-.1-.81-.2-1.21-.31-.4-.1-.79-.23-1.18-.4-.47-.22-.88-.54-1.22-.95-.22-.29-.35-.59-.38-.92s.02-.63.14-.9c.12-.28.31-.5.57-.69.26-.18.57-.3.93-.34s.73-.06,1.09-.06.71-.02,1.06-.06c1.47-.12,2.92-.25,4.34-.4s2.88-.28,4.34-.4c.53-.06,1.05-.1,1.54-.12.5-.02,1.01-.03,1.54-.03.82,0,1.51.24,2.09.72.58.48.92,1.08,1.03,1.79.14.92-.06,1.71-.6,2.37-.54.66-1.27,1.04-2.19,1.12-.35,0-.69-.01-1.02-.03s-.67-.05-.99-.09c-.35-.02-.69-.03-1.02-.03s-.71,0-1.12-.03Z"/>
    <path class="cls-1" d="M493.51,377.81c.61-.28,1.19-.54,1.74-.76s1.1-.39,1.65-.51c.55-.11,1.11-.16,1.67-.14s1.15.13,1.76.34c.39.1.7.27.95.5.24.23.43.5.57.81.13.31.22.64.26.99.04.36.05.7.03,1.02-.02.43-.12.81-.29,1.15-.17.34-.41.62-.72.86-.31.23-.66.41-1.07.52-.41.11-.85.15-1.32.11-1.55-.16-2.83.3-3.85,1.38-.47.47-.79.99-.96,1.56s-.27,1.17-.29,1.8c-.04.96-.08,1.9-.11,2.83-.03.93-.07,1.87-.11,2.83-.02.22-.05.44-.08.66-.03.21-.08.43-.14.66-.12.53-.38.94-.77,1.22s-.83.44-1.31.46c-.65.04-1.17-.02-1.56-.18s-.69-.4-.92-.7c-.23-.31-.38-.65-.47-1.04-.09-.39-.15-.78-.17-1.19-.04-.8-.06-1.67-.06-2.62s0-1.92.02-2.92c.01-1,.02-1.97.03-2.92,0-.95,0-1.82-.02-2.62,0-.41,0-.81.02-1.21,0-.4,0-.8-.02-1.21,0-.69.16-1.29.47-1.8.32-.51.78-.88,1.39-1.1.61-.28,1.21-.35,1.79-.2.58.15,1.11.49,1.58,1.02.06.06.11.12.15.18s.09.13.15.21Z"/>
    <path class="cls-1" d="M509.78,395.95c-.96-.24-1.79-.65-2.51-1.22-.71-.57-1.31-1.27-1.77-2.1-.47-.83-.82-1.76-1.05-2.8-.23-1.04-.35-2.16-.35-3.36,0-.61,0-1.37-.02-2.26-.01-.9.05-1.77.17-2.62.12-.85.35-1.59.67-2.23.33-.64.84-1.03,1.53-1.15.47-.08.94-.09,1.41-.02.47.07.89.23,1.25.47.37.24.65.58.86.99s.28.92.21,1.51c-.04.41-.1.92-.18,1.54-.08.62-.15,1.27-.21,1.94s-.1,1.35-.11,2.02.04,1.26.14,1.76c.1.5.28.89.54,1.16s.62.35,1.09.23c.49-.12.88-.4,1.18-.84.3-.44.52-.96.67-1.57.15-.61.26-1.28.32-2,.06-.72.1-1.44.12-2.14s.05-1.36.08-1.97.09-1.12.17-1.53c.14-.51.42-.92.84-1.22.42-.31.88-.49,1.38-.57.5-.07,1-.03,1.5.12s.89.44,1.18.87c.2.31.36.63.47.98.11.35.21.7.29,1.07.2,1.31.28,2.63.21,3.98-.06,1.35-.26,2.63-.6,3.84s-.79,2.33-1.36,3.35c-.57,1.02-1.26,1.87-2.06,2.54s-1.71,1.13-2.72,1.38c-1.01.24-2.12.19-3.32-.15Z"/>
    <path class="cls-1" d="M526.88,388.12c-.63-.41-1.33-.81-2.08-1.19-1.04-.57-1.81-1.29-2.31-2.16-.5-.87-.74-1.76-.72-2.68s.29-1.8.81-2.65c.52-.85,1.26-1.53,2.22-2.06.43-.24.88-.42,1.36-.54.48-.11.96-.17,1.45-.18.49,0,.98.01,1.47.06.49.05.97.11,1.44.17.51.06.97.25,1.38.57.41.32.72.69.95,1.13.22.44.35.9.38,1.39.03.49-.09.95-.35,1.38-.31.53-.69.89-1.16,1.09s-.98.26-1.53.2c-.35-.04-.68-.12-.99-.24s-.64-.23-.96-.34c-.27-.1-.52-.1-.75,0-.23.1-.41.26-.54.46-.12.2-.17.42-.14.64.03.23.18.41.44.55.43.27.87.49,1.31.67.33.16.64.31.95.43.31.12.61.26.92.43.92.45,1.66,1.02,2.22,1.71.56.69.95,1.44,1.16,2.23.21.8.26,1.6.12,2.4-.13.81-.42,1.54-.86,2.22-.44.67-1.04,1.23-1.8,1.68-.76.45-1.67.7-2.71.77-.47.04-.94.08-1.42.11s-.95.05-1.42.05c-.31,0-.61-.02-.92-.05-.31-.03-.6-.07-.89-.11-.55-.12-1.01-.34-1.39-.64-.38-.31-.66-.67-.86-1.09s-.29-.87-.29-1.36.12-.99.37-1.5c.31-.63.71-1.12,1.21-1.47.5-.35,1.12-.47,1.85-.37.18.02.37.04.57.05.19.01.39.04.6.08.39.04.73.02,1.04-.06s.52-.21.64-.38c.12-.17.13-.38.03-.61-.1-.23-.37-.49-.8-.78Z"/>
    <path class="cls-1" d="M539.39,386.01c-.33-.02-.72-.06-1.18-.11-.46-.05-.9-.15-1.32-.29s-.76-.35-1.02-.61c-.27-.26-.38-.62-.34-1.07.04-.45.17-.82.4-1.12s.51-.54.86-.72c.35-.18.73-.32,1.16-.4.43-.08.88-.14,1.35-.18v-1.41c-.02-.86,0-1.71.06-2.57.06-.86.2-1.71.43-2.57.12-.63.41-1.15.87-1.54.46-.4.98-.63,1.58-.69.63-.06,1.21.06,1.74.37.53.31.91.75,1.13,1.35.1.26.17.54.2.81s.05.56.05.84c0,.69-.02,1.37-.05,2.03s-.06,1.33-.08,2v.44c0,.13,0,.28.03.44.33,0,.63,0,.9-.02s.54,0,.81.05c.49.04.92.17,1.28.38.37.21.66.49.89.83.22.34.36.71.4,1.13.04.42-.03.83-.21,1.24-.24.53-.58.91-1.01,1.15-.43.23-.93.37-1.5.41-.29.02-.59.03-.9.02-.32-.01-.65-.02-.99-.02-.02.75-.03,1.46-.02,2.11.01.65.05,1.29.11,1.91s.14,1.23.23,1.83c.09.6.21,1.24.35,1.91.06.43.03.82-.09,1.18-.12.36-.39.65-.8.87-.75.41-1.48.36-2.17-.15-.67-.45-1.21-1.07-1.61-1.85-.4-.79-.71-1.64-.93-2.57-.22-.93-.38-1.87-.46-2.81-.08-.95-.13-1.82-.15-2.62Z"/>
    <path class="cls-1" d="M551.23,394.2c.04-.61.26-1.07.64-1.38.39-.31.8-.45,1.24-.44.44.01.84.17,1.21.49.37.32.55.8.55,1.45-.1.57-.36,1-.76,1.29-.41.29-.83.42-1.27.41-.44,0-.83-.16-1.16-.46-.34-.3-.49-.75-.44-1.36Z"/>
  </g>
  <g>
    <path class="cls-1" d="M487.31,282.99c-1.02-5.72-5.35-10.72-10.86-12.54-8.3-2.75-18.95.99-25.18-5.16-3.18-3.15-3.93-8.47-1.75-12.38,3.47-1.71,6.21-3.45,9.96-3.53,3.99-.09,7.66.98,11.57-.52,4.63-1.8,7.7-6.45,8.8-11.3,1.09-4.85.52-9.91-.25-14.81-.75-4.78-1.78-9.7-4.71-13.54-4.43-5.79-11.92-7.64-19.39-8.42,1.14,6.41-1.2,13.72-5.68,16.25-1.55.88-3.32,1.32-5.1,1.44-4.85.32-9.79-1.78-12.92-5.49-2.94-3.47-4.21-8.29-3.42-13.99-2.62-.17-5.24-.32-7.86-.49-1.8-.11-3.6-.23-5.4-.32,1.09,4.23,2.49,8.87,2.22,11.65-.31,3.16-1.72,6.31-4.25,8.22-1.35,1.03-2.95,1.68-4.58,2.18-3.02.96-6.24,1.5-9.35.95-4.43-.77-8.38-3.88-10.19-7.99-1.61-3.66-1.1-8.98.75-13.97-8.38,1.65-16.5,5.15-22.49,11.18-6.13,6.17-9.62,14.57-11.28,23.12-4.34,22.39.12,46.01,10.21,66.27,1.05,2.12,2.19,4.23,3.84,5.92,3.18,3.27,7.82,4.57,12.28,5.58,5.85,1.33,14.6.68,16.82,7.35,1.61,4.83,2.87,15.82-.67,19.96-1.8,2.1-4.69,2.81-7.39,3.33-2.71.53-5.6,1.09-7.59,3.01-1.98,1.91-2.35,5.73,0,7.16,1,.62,2.24.66,3.42.69,6.09.13,12.2.09,18.29-.13,2.56-.08,5.43-.36,7.06-2.33,1.38-1.66,1.43-4.01,1.45-6.17.06-6.23.44-12.47,1.13-18.67.18-1.66,0-7.25,1.17-8.4.62-.61,1.65-.76,2.77-.72.86.03,1.62.57,1.94,1.36,3.32,8.03,5.74,18.09,5.3,26.3-.05.95-.12,1.94.22,2.84.81,2.16,3.48,2.84,5.77,3.14,5.69.75,11.43,1.14,17.18,1.16,3.21,0,7.24-.69,8.1-3.79.49-1.75-.37-3.67-1.72-4.88-1.35-1.21-3.14-1.83-4.9-2.28-2.7-.68-5.49-1.03-8.27-1.03s-6.43.05-7.86-2.47c-.54-.95-.63-2.08-.7-3.17-.28-4.32-1.07-13.9,3.63-15.95,2.23-.98,7.74.3,10.25.38,3.52.1,7.04.18,10.56.28,5.62.14,11.39.26,16.75-1.44,5.38-1.7,10.38-5.6,11.88-11.03.99-3.58.38-7.38.39-11.1.02-3.9.74-7.84.06-11.68Z"/>
    <path class="cls-2" d="M401.14,213.53c2.73.07,5.39-1.58,6.69-3.99,1.32-2.39,1.32-5.41.2-7.91-.48-1.07-1.3-2.48-1.85-3.76h-.06l-8.83-.14c-.03.15-.06.29-.1.44-.84,3.81-3.08,7.24-2.14,10.71.72,2.63,3.35,4.57,6.08,4.64Z"/>
    <path class="cls-2" d="M436.31,211.34c1.97,2.18,5.81,1.81,7.87-.29,1.94-1.98,3.56-7.31,3.22-10.87,0-.22-.04-.43-.07-.64l-13.1-.87c.06.22.11.45.16.69.78,3.96-.29,9.53,1.92,11.97Z"/>
  </g>
</svg>