<svg width="164" height="192" viewBox="0 0 164 192" fill="none" xmlns="http://www.w3.org/2000/svg">
<path d="M163.259 105.289C162.002 98.1911 156.687 91.9787 149.925 89.7255C139.741 86.3136 126.661 90.9648 119.023 83.32C115.124 79.4091 114.201 72.8105 116.875 67.95C121.139 65.8255 124.497 63.6689 129.095 63.5724C133.981 63.4597 138.5 64.7955 143.305 62.9286C148.986 60.7076 152.757 54.9136 154.11 48.9105C155.446 42.8912 154.746 36.6145 153.807 30.5147C152.884 24.5759 151.627 18.4762 148.015 13.6962C142.573 6.50208 133.376 4.2167 124.226 3.23495C125.627 11.1855 122.762 20.2627 117.257 23.4011C115.363 24.4955 113.183 25.0427 111.003 25.1875C105.052 25.5899 98.9734 22.9826 95.1385 18.3797C91.5264 14.0664 89.967 8.09542 90.9535 1.01394C87.7392 0.804714 84.5249 0.611582 81.3106 0.402357C79.1147 0.257508 76.887 0.11266 74.6752 0C76.0118 5.26283 77.7304 11.0246 77.3962 14.4527C77.0143 18.3797 75.2799 22.2745 72.177 24.6564C70.5221 25.944 68.5489 26.7326 66.544 27.3603C62.8364 28.5512 58.8901 29.2272 55.0712 28.5351C49.6292 27.5695 44.7918 23.7229 42.5641 18.6211C40.5909 14.0664 41.2274 7.46774 43.487 1.28754C33.2076 3.33151 23.2465 7.67697 15.8791 15.1608C8.35252 22.8217 4.07209 33.2508 2.03531 43.8569C-3.29532 71.6517 2.17852 100.975 14.5583 126.131C15.8472 128.754 17.2475 131.378 19.2684 133.486C23.1669 137.542 28.8794 139.151 34.3374 140.406C41.5298 142.064 52.2547 141.259 54.9757 149.532C56.9488 155.535 58.5082 169.167 54.1483 174.301C51.9524 176.908 48.4039 177.793 45.0782 178.437C41.7525 179.097 38.2041 179.789 35.7695 182.171C33.3349 184.553 32.8894 189.285 35.7695 191.055C36.9947 191.828 38.5223 191.876 39.9544 191.908C47.4332 192.069 54.928 192.021 62.4068 191.747C65.5415 191.651 69.074 191.296 71.079 188.85C72.7816 186.79 72.8294 183.861 72.8612 181.189C72.9407 173.448 73.4022 165.707 74.2456 158.014C74.4683 155.953 74.2456 149.001 75.6777 147.584C76.4415 146.828 77.6985 146.635 79.0829 146.683C80.1331 146.715 81.072 147.391 81.4698 148.373C85.5433 158.335 88.5189 170.841 87.9779 181.028C87.9143 182.203 87.8347 183.442 88.2484 184.553C89.235 187.241 92.5129 188.078 95.3294 188.448C102.315 189.381 109.364 189.864 116.413 189.88C120.36 189.88 125.292 189.027 126.358 185.165C126.963 182.992 125.913 180.61 124.242 179.113C122.587 177.6 120.391 176.844 118.227 176.281C114.918 175.428 111.496 174.993 108.075 174.993C104.654 174.993 100.183 175.057 98.4323 171.935C97.764 170.76 97.6685 169.36 97.5731 168.008C97.2389 162.649 96.2682 150.755 102.029 148.196C104.765 146.989 111.528 148.566 114.599 148.663C118.912 148.792 123.24 148.888 127.552 149.001C134.458 149.178 141.523 149.323 148.111 147.214C154.714 145.106 160.856 140.262 162.702 133.518C163.928 129.076 163.164 124.36 163.18 119.741C163.196 114.897 164.087 110.004 163.243 105.24L163.259 105.289Z" fill="#231F20"/>
<path d="M57.9423 18.9264C61.3723 19.0197 64.6886 17.0307 66.3305 14.156C67.9887 11.2813 67.9887 7.6607 66.5906 4.67722C65.9891 3.40303 64.965 1.70928 64.266 0.170929H64.2009L53.1304 0C53.0979 0.170928 53.0654 0.357396 53.0003 0.528324C51.9437 5.09677 49.1313 9.19906 50.318 13.3635C51.2121 16.5179 54.5122 18.8332 57.9423 18.9264Z" fill="#231F20"/>
<path d="M101.25 17.1007C103.669 19.8087 108.38 19.3574 110.911 16.746C113.298 14.2798 115.287 7.65472 114.874 3.2219C114.874 2.94787 114.826 2.68996 114.778 2.43205L98.7031 1.35205C98.7827 1.62608 98.8464 1.91623 98.8941 2.20638C99.8491 7.12278 98.544 14.0541 101.25 17.0845V17.1007Z" fill="#231F20"/>
</svg>
