<svg width="256" height="67" viewBox="0 0 256 67" fill="none" xmlns="http://www.w3.org/2000/svg">
<g clip-path="url(#clip0_3522_14136)">
<path d="M97.8334 9.56893C95.4761 5.57235 91.9065 2.12523 87.4807 0.772297C85.1595 0.0621387 82.699 -0.0467178 80.2695 0.0154859C73.4451 0.202097 66.6568 1.77792 60.4411 4.61337C58.9555 5.29243 57.4544 6.08034 56.4331 7.35552C54.9269 9.22681 54.6999 11.8031 54.6483 14.2135C54.4781 21.6209 55.0042 29.0646 56.2732 36.3632C56.9076 40.0228 57.7381 43.6514 58.8317 47.2022C59.8736 50.5871 59.8788 53.7647 60.6577 57.2118C60.8124 57.8908 60.9981 58.5958 61.4676 59.1038C62.2774 59.9746 63.732 59.9747 64.7534 59.3682C66.1667 58.5284 66.6568 57.5176 68.1166 56.8541C69.9065 56.0403 72.6816 55.3249 74.6469 55.5634C77.4221 55.8951 79.1553 57.6265 81.4455 59.0053C83.8854 60.4723 87.1764 60.804 89.5028 59.1712C91.8343 57.5383 92.4946 53.6765 90.3745 51.7741C88.8941 50.4419 85.7733 49.9495 86.5832 47.2125C86.6245 47.0622 86.6864 46.9171 86.7844 46.7978C86.8824 46.6786 87.0165 46.6009 87.1506 46.5283C87.8624 46.1447 88.6568 46.0151 89.3893 45.6834C90.2249 45.3049 91.0657 44.9473 91.8911 44.5378C95.8423 42.5887 98.2099 37.8405 99.5098 33.8232C101.939 26.3225 101.939 16.5306 97.8334 9.56893ZM89.4048 18.8477C89.6059 20.4287 88.7187 22.1755 87.2125 22.6628C86.7173 22.8235 86.1396 22.8339 85.7011 22.5488C85.4381 22.3777 85.2524 22.1185 85.0667 21.8645C84.3703 20.9159 83.6172 19.9984 82.699 19.2675C80.6821 17.671 78.2268 17.3081 75.8695 16.5046C72.0936 15.2139 75.4 13.5344 77.7677 13.4515C79.2584 13.3996 80.7543 13.4878 82.2348 13.6899C83.808 13.9025 85.3916 14.2653 86.7483 15.0895C88.1049 15.9137 89.2087 17.2718 89.4099 18.8528L89.4048 18.8477Z" fill="#231F20"/>
<path d="M117.935 10.901C117.229 9.99901 116.383 9.23701 115.387 8.71346C114.061 8.01367 112.498 7.78041 111.023 8.05514C109.548 8.32987 108.181 9.12297 107.196 10.253C106.143 11.466 105.555 13.0159 105.174 14.5762C104.849 15.9084 104.725 17.282 104.395 18.6142C104.276 19.0911 104.018 19.4851 103.884 19.9568C103.709 20.5892 103.59 21.2423 103.425 21.8799C101.212 30.3914 100.609 39.328 101.656 48.0625C102.208 52.65 103.379 57.4967 106.768 60.6224C108.294 62.0324 110.177 62.9965 112.132 63.6808C119.988 66.4385 129.273 64.5516 135.448 58.9481C136.773 57.7455 137.96 56.3926 139.064 54.9826C143.99 48.726 147.456 41.3134 149.096 33.512C150.567 26.5141 150.448 18.7438 146.512 12.7878C145.821 11.7407 144.965 10.7247 143.794 10.2841C142.937 9.96272 141.993 9.98345 141.08 10.0249C139.131 10.113 136.913 10.2582 135.179 11.2586C133.616 12.1554 132.729 13.9489 132.023 15.5611C130.48 19.0911 129.928 23.0462 127.813 26.3275C127.329 27.0739 126.73 27.8048 125.9 28.1158C124.166 28.7638 122.273 27.2502 121.644 25.5033C121.015 23.7564 121.221 21.8281 121.066 19.9723C120.824 17.0436 119.895 13.3995 117.93 10.8906L117.935 10.901Z" fill="#231F20"/>
<path d="M194.766 26.81C195.664 26.5041 196.525 26.0998 197.417 25.5607C198.16 25.1149 198.934 24.6329 199.378 23.8864C199.723 23.3058 199.832 22.6164 199.904 21.9425C200.27 18.5887 200.017 14.6388 198.165 11.71C196.633 9.28927 193.998 7.83267 191.424 6.5886C186.575 4.24559 181.365 2.23434 175.99 2.43132C169.847 2.6594 164.167 5.74366 159.153 9.32556C156.229 11.4146 153.299 13.8975 152.226 17.3343C151.117 20.8851 152.216 24.7469 153.701 28.1629C154.826 30.7547 156.311 33.5954 159.143 34.4921C160.577 34.9483 161.898 35.6636 163.347 36.1042C165.029 36.6122 166.757 36.9647 168.387 37.6334C169.073 37.9133 169.795 38.3177 170.037 39.0226C170.259 39.6758 169.981 40.4222 169.506 40.9147C169.031 41.4071 168.376 41.6922 167.732 41.9255C165.993 42.5475 164.141 42.8533 162.295 42.8274C161 42.8067 159.68 42.6304 158.431 42.9778C156.131 43.6153 156.069 45.6525 155.77 47.6378C155.46 49.6854 155.651 51.7899 156.223 53.7753C157.405 57.8703 160.201 61.5093 163.832 63.7071C169.805 67.3149 177.434 67.346 184.032 65.0912C187.065 64.0544 190.211 62.432 192.141 59.7727C193.146 58.3887 193.91 56.6522 194.751 55.1386C195.705 53.428 196.556 51.6448 197.087 49.7528C197.964 46.6322 197.902 43.0918 196.185 40.3496C195.509 39.2714 194.56 38.3177 193.368 37.8719C192.068 37.3846 190.624 37.5349 189.262 37.2757C188.086 37.0529 186.987 36.5241 185.94 35.9332C184.64 35.1971 183.289 34.2018 183 32.7297C182.773 31.5582 183.299 30.34 184.104 29.464C184.976 28.5102 186.162 27.6445 187.426 27.489C188.881 27.3128 190.356 27.6445 191.816 27.4683C192.883 27.3387 193.843 27.1365 194.771 26.8203L194.766 26.81Z" fill="#231F20"/>
<path d="M209.768 25.6952C208.035 25.3686 206.379 24.8658 204.682 23.8135C204.084 23.4403 203.501 23.0256 203.073 22.4658C202.402 21.5898 202.17 20.4545 202.005 19.3608C201.747 17.6087 201.732 15.5716 202.619 13.9802C202.975 13.3426 203.491 12.8087 204.058 12.3525C205.203 11.4298 206.555 10.8182 207.891 10.2117C209.165 9.63628 210.444 9.05572 211.806 8.73433C213.591 8.31446 215.442 8.35592 217.274 8.39739C220.157 8.46478 222.979 8.70841 225.847 8.56327C228.998 8.40776 232.15 8.26262 235.307 8.25225C239.268 8.24188 243.328 8.14858 247.063 9.48077C250.39 10.6678 253.351 13.0523 254.883 16.2454C256.621 19.8688 256.853 26.7682 251.757 27.1622C248.264 27.4317 244.772 27.7013 241.28 27.9708C240.083 28.0641 238.763 28.2144 237.953 29.106C237.252 29.8784 237.133 31.0032 237.061 32.0503C236.947 33.6573 236.596 35.5337 236.952 37.1148C237.272 38.5403 238.263 39.6496 238.943 40.8988C240.011 42.8582 240.285 45.1598 240.269 47.3939C240.238 52.1421 238.861 57.0355 235.632 60.5033C232.408 63.9712 227.131 65.6922 222.736 63.9453C222.024 63.6602 221.333 63.287 220.791 62.7427C220.08 62.0273 219.672 61.0632 219.399 60.0886C218.775 57.8545 218.79 55.4908 218.878 53.1685C219.151 45.8388 220.317 38.193 218.728 30.9514C218.512 29.9717 218.233 28.9764 217.619 28.1833C216.701 27.0067 215.174 26.4779 213.704 26.2654C212.322 26.0632 211.027 25.9181 209.768 25.6848V25.6952Z" fill="#231F20"/>
<path d="M52.9312 37.571C52.5237 35.2851 50.8009 33.2842 48.6086 32.5585C45.3073 31.4595 41.0672 32.9576 38.5912 30.4954C37.3275 29.2357 37.0283 27.1105 37.8949 25.545C39.2773 24.8608 40.3657 24.1661 41.8564 24.135C43.44 24.0988 44.905 24.529 46.4628 23.9277C48.3043 23.2124 49.5268 21.3462 49.9652 19.4127C50.3985 17.4741 50.1716 15.4524 49.8672 13.4878C49.568 11.5751 49.1605 9.61049 47.9896 8.07095C46.2255 5.75386 43.244 5.01778 40.278 4.70158C40.7319 7.2623 39.8034 10.1859 38.0187 11.1967C37.4048 11.5492 36.6981 11.7254 35.9915 11.7721C34.0623 11.9017 32.0918 11.0619 30.8487 9.57938C29.6777 8.19017 29.1722 6.26704 29.492 3.98624C28.4501 3.91885 27.4081 3.85665 26.3661 3.78926C25.6543 3.74261 24.9321 3.69595 24.2151 3.65967C24.6484 5.35472 25.2055 7.21046 25.0972 8.31458C24.9734 9.57939 24.4111 10.8338 23.4053 11.601C22.8688 12.0157 22.2292 12.2697 21.5792 12.4719C20.3774 12.8554 19.0981 13.0732 17.8601 12.8503C16.096 12.5392 14.5279 11.3004 13.8057 9.65714C13.1661 8.19017 13.3724 6.06488 14.1049 4.07436C10.7727 4.73268 7.54358 6.13226 5.15529 8.54266C2.71543 11.0101 1.32785 14.3691 0.667596 17.7851C-1.06043 26.7372 0.71402 36.1818 4.72716 44.2839C5.14498 45.1288 5.59891 45.9737 6.25401 46.6528C7.51778 47.9591 9.3696 48.4774 11.1389 48.8817C13.4704 49.4157 16.9471 49.1565 17.8292 51.8209C18.4688 53.7544 18.9743 58.1449 17.5609 59.7985C16.8491 60.6382 15.6988 60.9233 14.6207 61.1307C13.5426 61.3432 12.3924 61.5661 11.6031 62.3333C10.8139 63.1005 10.6695 64.6245 11.6031 65.1947C12.0003 65.4435 12.4955 65.459 12.9598 65.4694C15.3842 65.5212 17.8137 65.5057 20.2381 65.4175C21.2543 65.3864 22.3994 65.2724 23.0494 64.4845C23.6013 63.821 23.6168 62.8776 23.6271 62.0171C23.6529 59.5238 23.8025 57.0304 24.0758 54.5526C24.1481 53.8891 24.0758 51.6498 24.5401 51.1936C24.7877 50.95 25.1952 50.8878 25.644 50.9034C25.9844 50.9137 26.2887 51.1314 26.4177 51.4476C27.7382 54.6563 28.7028 58.684 28.5274 61.9652C28.5068 62.3437 28.481 62.7428 28.6151 63.1005C28.9349 63.9661 29.9975 64.2357 30.9106 64.3549C33.175 64.6556 35.4602 64.8111 37.7453 64.8162C39.0245 64.8162 40.6236 64.5415 40.9692 63.2974C41.1652 62.5977 40.8248 61.8305 40.2831 61.3484C39.7467 60.8611 39.0348 60.6175 38.3333 60.4361C37.2604 60.1613 36.1514 60.0214 35.0423 60.0214C33.9333 60.0214 32.4838 60.0421 31.9164 59.0365C31.6998 58.6581 31.6688 58.2071 31.6379 57.7717C31.5296 56.0455 31.2149 52.2148 33.0822 51.3906C33.9694 51.0018 36.1617 51.5098 37.1572 51.5409C38.5551 51.5824 39.9582 51.6135 41.3561 51.6498C43.5948 51.7068 45.885 51.7535 48.0206 51.0744C50.1612 50.3954 52.1523 48.8351 52.7507 46.6631C53.1479 45.2325 52.9003 43.7137 52.9054 42.2259C52.9106 40.6657 53.1995 39.0898 52.9261 37.5555L52.9312 37.571Z" fill="#48111C"/>
<path d="M18.643 9.79707C19.7314 9.82817 20.7837 9.16467 21.3047 8.20569C21.8309 7.24672 21.8309 6.03893 21.3872 5.04367C21.1964 4.61862 20.8714 4.0536 20.6496 3.54042H20.629L17.1162 3.4834C17.1059 3.54042 17.0956 3.60262 17.0749 3.65964C16.7396 5.18363 15.8473 6.55211 16.2238 7.94133C16.5075 8.99361 17.5546 9.76597 18.643 9.79707Z" fill="#231F20"/>
<path d="M32.6378 8.92086C33.4219 9.79171 34.9487 9.64657 35.7689 8.80682C36.5426 8.01372 37.1874 5.88325 37.0533 4.45775C37.0533 4.36963 37.0378 4.28669 37.0224 4.20375L31.8125 3.85645C31.8383 3.94457 31.8589 4.03787 31.8744 4.13118C32.1839 5.71219 31.7609 7.94115 32.6378 8.91568V8.92086Z" fill="#231F20"/>
</g>
<defs>
<clipPath id="clip0_3522_14136">
<rect width="256" height="67" fill="white"/>
</clipPath>
</defs>
</svg>
